<mxfile host="app.diagrams.net" modified="2022-11-08T16:26:28.320Z" agent="5.0 (Windows NT 10.0; Win64; x64) AppleWebKit/537.36 (KHTML, like Gecko) Chrome/107.0.0.0 Safari/537.36" etag="MSE-cR7AwSUNwUFnXe1J" version="20.5.3" type="github">
  <diagram id="wd_qrCBDVRweSy604twD" name="Trang-1">
    <mxGraphModel dx="1093" dy="601" grid="1" gridSize="10" guides="1" tooltips="1" connect="1" arrows="1" fold="1" page="1" pageScale="1" pageWidth="1654" pageHeight="2336" math="0" shadow="0">
      <root>
        <mxCell id="0" />
        <mxCell id="1" parent="0" />
        <mxCell id="2mCeUhS0HblJ2pye45ta-1" value="&lt;p style=&quot;line-height: 110%; font-size: 17px;&quot;&gt;Bắt Đàu&lt;/p&gt;" style="ellipse;whiteSpace=wrap;html=1;" vertex="1" parent="1">
          <mxGeometry x="330" y="50" width="120" height="80" as="geometry" />
        </mxCell>
        <mxCell id="2mCeUhS0HblJ2pye45ta-2" value="Input a,b,c" style="shape=parallelogram;perimeter=parallelogramPerimeter;whiteSpace=wrap;html=1;fixedSize=1;fontSize=17;" vertex="1" parent="1">
          <mxGeometry x="330" y="160" width="120" height="60" as="geometry" />
        </mxCell>
        <mxCell id="2mCeUhS0HblJ2pye45ta-3" value="" style="endArrow=classic;html=1;rounded=0;fontSize=17;exitX=0.5;exitY=1;exitDx=0;exitDy=0;" edge="1" parent="1" source="2mCeUhS0HblJ2pye45ta-1">
          <mxGeometry width="50" height="50" relative="1" as="geometry">
            <mxPoint x="390" y="180" as="sourcePoint" />
            <mxPoint x="390" y="160" as="targetPoint" />
          </mxGeometry>
        </mxCell>
        <mxCell id="2mCeUhS0HblJ2pye45ta-4" value="a=0" style="rhombus;whiteSpace=wrap;html=1;fontSize=17;" vertex="1" parent="1">
          <mxGeometry x="325" y="250" width="130" height="80" as="geometry" />
        </mxCell>
        <mxCell id="2mCeUhS0HblJ2pye45ta-5" value="dt=b*b-4*a*c" style="rounded=0;whiteSpace=wrap;html=1;fontSize=17;" vertex="1" parent="1">
          <mxGeometry x="330" y="400" width="120" height="60" as="geometry" />
        </mxCell>
        <mxCell id="2mCeUhS0HblJ2pye45ta-6" value="phương trình bậc 1" style="rounded=0;whiteSpace=wrap;html=1;fontSize=17;" vertex="1" parent="1">
          <mxGeometry x="550" y="260" width="180" height="60" as="geometry" />
        </mxCell>
        <mxCell id="2mCeUhS0HblJ2pye45ta-10" value="" style="endArrow=classic;html=1;rounded=0;fontSize=17;exitX=0.5;exitY=1;exitDx=0;exitDy=0;entryX=0.5;entryY=0;entryDx=0;entryDy=0;" edge="1" parent="1" source="2mCeUhS0HblJ2pye45ta-2" target="2mCeUhS0HblJ2pye45ta-4">
          <mxGeometry width="50" height="50" relative="1" as="geometry">
            <mxPoint x="390" y="280" as="sourcePoint" />
            <mxPoint x="440" y="230" as="targetPoint" />
            <Array as="points">
              <mxPoint x="390" y="250" />
            </Array>
          </mxGeometry>
        </mxCell>
        <mxCell id="2mCeUhS0HblJ2pye45ta-12" value="Đúng" style="endArrow=classic;html=1;rounded=0;fontSize=17;exitX=1;exitY=0.5;exitDx=0;exitDy=0;entryX=0;entryY=0.5;entryDx=0;entryDy=0;" edge="1" parent="1" source="2mCeUhS0HblJ2pye45ta-4" target="2mCeUhS0HblJ2pye45ta-6">
          <mxGeometry width="50" height="50" relative="1" as="geometry">
            <mxPoint x="390" y="280" as="sourcePoint" />
            <mxPoint x="440" y="230" as="targetPoint" />
          </mxGeometry>
        </mxCell>
        <mxCell id="2mCeUhS0HblJ2pye45ta-13" value="sai" style="endArrow=classic;html=1;rounded=0;fontSize=17;exitX=0.5;exitY=1;exitDx=0;exitDy=0;" edge="1" parent="1" source="2mCeUhS0HblJ2pye45ta-4" target="2mCeUhS0HblJ2pye45ta-5">
          <mxGeometry width="50" height="50" relative="1" as="geometry">
            <mxPoint x="390" y="270" as="sourcePoint" />
            <mxPoint x="440" y="220" as="targetPoint" />
          </mxGeometry>
        </mxCell>
        <mxCell id="2mCeUhS0HblJ2pye45ta-14" value="dt&amp;lt;0" style="rhombus;whiteSpace=wrap;html=1;fontSize=17;" vertex="1" parent="1">
          <mxGeometry x="335" y="490" width="110" height="70" as="geometry" />
        </mxCell>
        <mxCell id="2mCeUhS0HblJ2pye45ta-16" value="dt=0" style="rhombus;whiteSpace=wrap;html=1;fontSize=17;" vertex="1" parent="1">
          <mxGeometry x="335" y="610" width="110" height="70" as="geometry" />
        </mxCell>
        <mxCell id="2mCeUhS0HblJ2pye45ta-17" value="" style="endArrow=classic;html=1;rounded=0;fontSize=17;exitX=0.5;exitY=1;exitDx=0;exitDy=0;entryX=0.5;entryY=0;entryDx=0;entryDy=0;" edge="1" parent="1" source="2mCeUhS0HblJ2pye45ta-5" target="2mCeUhS0HblJ2pye45ta-14">
          <mxGeometry width="50" height="50" relative="1" as="geometry">
            <mxPoint x="390" y="570" as="sourcePoint" />
            <mxPoint x="440" y="520" as="targetPoint" />
          </mxGeometry>
        </mxCell>
        <mxCell id="2mCeUhS0HblJ2pye45ta-18" value="sai" style="endArrow=classic;html=1;rounded=0;fontSize=17;exitX=0.5;exitY=1;exitDx=0;exitDy=0;entryX=0.5;entryY=0;entryDx=0;entryDy=0;" edge="1" parent="1" source="2mCeUhS0HblJ2pye45ta-14" target="2mCeUhS0HblJ2pye45ta-16">
          <mxGeometry width="50" height="50" relative="1" as="geometry">
            <mxPoint x="390" y="570" as="sourcePoint" />
            <mxPoint x="440" y="520" as="targetPoint" />
          </mxGeometry>
        </mxCell>
        <mxCell id="2mCeUhS0HblJ2pye45ta-19" value="sai" style="endArrow=classic;html=1;rounded=0;fontSize=17;exitX=0.5;exitY=1;exitDx=0;exitDy=0;" edge="1" parent="1" source="2mCeUhS0HblJ2pye45ta-16" target="2mCeUhS0HblJ2pye45ta-20">
          <mxGeometry width="50" height="50" relative="1" as="geometry">
            <mxPoint x="390" y="570" as="sourcePoint" />
            <mxPoint x="390" y="740" as="targetPoint" />
          </mxGeometry>
        </mxCell>
        <mxCell id="2mCeUhS0HblJ2pye45ta-20" value="Phương trình có 2 nghiệm phân biệt:&lt;br&gt;x1=(-b+sqrt(dt))/(2*a)&lt;br&gt;x2=(-b-sqrt(dt))/(2*a)" style="rounded=0;whiteSpace=wrap;html=1;fontSize=17;align=left;" vertex="1" parent="1">
          <mxGeometry x="272.5" y="760" width="235" height="170" as="geometry" />
        </mxCell>
        <mxCell id="2mCeUhS0HblJ2pye45ta-23" value="Phương trình vô nghiệm" style="rounded=0;whiteSpace=wrap;html=1;fontSize=17;" vertex="1" parent="1">
          <mxGeometry x="550" y="495" width="180" height="60" as="geometry" />
        </mxCell>
        <mxCell id="2mCeUhS0HblJ2pye45ta-24" value="Phương trình có nghiệm kép:&lt;br&gt;x=-b/(2*a)" style="rounded=0;whiteSpace=wrap;html=1;fontSize=17;" vertex="1" parent="1">
          <mxGeometry x="550" y="615" width="180" height="60" as="geometry" />
        </mxCell>
        <mxCell id="2mCeUhS0HblJ2pye45ta-25" value="Đúng" style="endArrow=classic;html=1;rounded=0;fontSize=17;exitX=1;exitY=0.5;exitDx=0;exitDy=0;entryX=0;entryY=0.5;entryDx=0;entryDy=0;" edge="1" parent="1" source="2mCeUhS0HblJ2pye45ta-14">
          <mxGeometry width="50" height="50" relative="1" as="geometry">
            <mxPoint x="455" y="524.5" as="sourcePoint" />
            <mxPoint x="550" y="524.5" as="targetPoint" />
          </mxGeometry>
        </mxCell>
        <mxCell id="2mCeUhS0HblJ2pye45ta-26" value="Đúng" style="endArrow=classic;html=1;rounded=0;fontSize=17;exitX=1;exitY=0.5;exitDx=0;exitDy=0;entryX=0;entryY=0.5;entryDx=0;entryDy=0;" edge="1" parent="1">
          <mxGeometry width="50" height="50" relative="1" as="geometry">
            <mxPoint x="445" y="645" as="sourcePoint" />
            <mxPoint x="550" y="644.5" as="targetPoint" />
          </mxGeometry>
        </mxCell>
        <mxCell id="2mCeUhS0HblJ2pye45ta-29" value="" style="endArrow=classic;html=1;rounded=0;fontSize=17;" edge="1" parent="1">
          <mxGeometry width="50" height="50" relative="1" as="geometry">
            <mxPoint x="730" y="289.47" as="sourcePoint" />
            <mxPoint x="810" y="289.47" as="targetPoint" />
          </mxGeometry>
        </mxCell>
        <mxCell id="2mCeUhS0HblJ2pye45ta-30" value="c=0" style="rounded=0;whiteSpace=wrap;html=1;fontSize=17;" vertex="1" parent="1">
          <mxGeometry x="810" y="380" width="120" height="60" as="geometry" />
        </mxCell>
        <mxCell id="2mCeUhS0HblJ2pye45ta-31" value="b=0" style="rounded=0;whiteSpace=wrap;html=1;fontSize=17;" vertex="1" parent="1">
          <mxGeometry x="810" y="260" width="120" height="60" as="geometry" />
        </mxCell>
        <mxCell id="2mCeUhS0HblJ2pye45ta-32" value="Đúng" style="endArrow=classic;html=1;rounded=0;fontSize=17;exitX=0.5;exitY=1;exitDx=0;exitDy=0;" edge="1" parent="1" source="2mCeUhS0HblJ2pye45ta-31" target="2mCeUhS0HblJ2pye45ta-30">
          <mxGeometry width="50" height="50" relative="1" as="geometry">
            <mxPoint x="520" y="430" as="sourcePoint" />
            <mxPoint x="570" y="380" as="targetPoint" />
          </mxGeometry>
        </mxCell>
        <mxCell id="2mCeUhS0HblJ2pye45ta-33" value="sai" style="endArrow=classic;html=1;rounded=0;fontSize=17;exitX=1;exitY=0.5;exitDx=0;exitDy=0;" edge="1" parent="1" source="2mCeUhS0HblJ2pye45ta-31">
          <mxGeometry width="50" height="50" relative="1" as="geometry">
            <mxPoint x="660" y="460" as="sourcePoint" />
            <mxPoint x="1010" y="290" as="targetPoint" />
          </mxGeometry>
        </mxCell>
        <mxCell id="2mCeUhS0HblJ2pye45ta-34" value="Đúng" style="endArrow=classic;html=1;rounded=0;fontSize=17;exitX=1;exitY=0.5;exitDx=0;exitDy=0;" edge="1" parent="1">
          <mxGeometry width="50" height="50" relative="1" as="geometry">
            <mxPoint x="930" y="409.47" as="sourcePoint" />
            <mxPoint x="1010" y="409" as="targetPoint" />
          </mxGeometry>
        </mxCell>
        <mxCell id="2mCeUhS0HblJ2pye45ta-35" value="" style="endArrow=classic;html=1;rounded=0;fontSize=17;exitX=0.5;exitY=1;exitDx=0;exitDy=0;" edge="1" parent="1" source="2mCeUhS0HblJ2pye45ta-20">
          <mxGeometry width="50" height="50" relative="1" as="geometry">
            <mxPoint x="460" y="960" as="sourcePoint" />
            <mxPoint x="390" y="980" as="targetPoint" />
          </mxGeometry>
        </mxCell>
        <mxCell id="2mCeUhS0HblJ2pye45ta-36" value="Kết thúc" style="ellipse;whiteSpace=wrap;html=1;fontSize=17;" vertex="1" parent="1">
          <mxGeometry x="330" y="980" width="120" height="80" as="geometry" />
        </mxCell>
        <mxCell id="2mCeUhS0HblJ2pye45ta-37" value="Phương trình có nghiệm:&lt;br&gt;&amp;nbsp;-c/2b" style="rounded=0;whiteSpace=wrap;html=1;fontSize=17;" vertex="1" parent="1">
          <mxGeometry x="1010" y="260" width="120" height="60" as="geometry" />
        </mxCell>
        <mxCell id="2mCeUhS0HblJ2pye45ta-38" value="&amp;nbsp;Phương trình có vô số nghiệm" style="rounded=0;whiteSpace=wrap;html=1;fontSize=17;" vertex="1" parent="1">
          <mxGeometry x="1010" y="380" width="120" height="60" as="geometry" />
        </mxCell>
        <mxCell id="2mCeUhS0HblJ2pye45ta-39" value="sai" style="endArrow=classic;html=1;rounded=0;fontSize=17;exitX=0.5;exitY=1;exitDx=0;exitDy=0;entryX=1;entryY=0.25;entryDx=0;entryDy=0;" edge="1" parent="1" target="2mCeUhS0HblJ2pye45ta-23">
          <mxGeometry width="50" height="50" relative="1" as="geometry">
            <mxPoint x="869.47" y="440" as="sourcePoint" />
            <mxPoint x="880" y="630" as="targetPoint" />
            <Array as="points">
              <mxPoint x="869.47" y="440" />
              <mxPoint x="870" y="510" />
            </Array>
          </mxGeometry>
        </mxCell>
        <mxCell id="2mCeUhS0HblJ2pye45ta-40" value="" style="endArrow=classic;html=1;rounded=0;fontSize=17;" edge="1" parent="1">
          <mxGeometry width="50" height="50" relative="1" as="geometry">
            <mxPoint x="730" y="644.94" as="sourcePoint" />
            <mxPoint x="390" y="960" as="targetPoint" />
            <Array as="points">
              <mxPoint x="800" y="645" />
              <mxPoint x="800" y="960" />
            </Array>
          </mxGeometry>
        </mxCell>
        <mxCell id="2mCeUhS0HblJ2pye45ta-43" value="" style="endArrow=none;html=1;rounded=0;fontSize=17;exitX=1;exitY=0.75;exitDx=0;exitDy=0;" edge="1" parent="1" source="2mCeUhS0HblJ2pye45ta-23">
          <mxGeometry width="50" height="50" relative="1" as="geometry">
            <mxPoint x="750" y="600" as="sourcePoint" />
            <mxPoint x="800" y="760" as="targetPoint" />
            <Array as="points">
              <mxPoint x="850" y="540" />
              <mxPoint x="850" y="760" />
            </Array>
          </mxGeometry>
        </mxCell>
        <mxCell id="2mCeUhS0HblJ2pye45ta-44" value="" style="endArrow=none;html=1;rounded=0;fontSize=17;entryX=1;entryY=0.5;entryDx=0;entryDy=0;" edge="1" parent="1" target="2mCeUhS0HblJ2pye45ta-37">
          <mxGeometry width="50" height="50" relative="1" as="geometry">
            <mxPoint x="850" y="760" as="sourcePoint" />
            <mxPoint x="1200" y="280" as="targetPoint" />
            <Array as="points">
              <mxPoint x="1200" y="760" />
              <mxPoint x="1200" y="410" />
              <mxPoint x="1200" y="370" />
              <mxPoint x="1200" y="290" />
            </Array>
          </mxGeometry>
        </mxCell>
        <mxCell id="2mCeUhS0HblJ2pye45ta-45" value="" style="endArrow=none;html=1;rounded=0;fontSize=17;" edge="1" parent="1">
          <mxGeometry width="50" height="50" relative="1" as="geometry">
            <mxPoint x="1130" y="410" as="sourcePoint" />
            <mxPoint x="1200" y="410" as="targetPoint" />
          </mxGeometry>
        </mxCell>
      </root>
    </mxGraphModel>
  </diagram>
</mxfile>
